<svg width="16" height="17" viewBox="0 0 16 17" fill="none" xmlns="http://www.w3.org/2000/svg">
<g clip-path="url(#clip0_628_234)">
<path fill-rule="evenodd" clip-rule="evenodd" d="M8.47121 10.9712C8.34619 11.0962 8.17666 11.1664 7.99988 11.1664C7.8231 11.1664 7.65356 11.0962 7.52855 10.9712L3.75721 7.1999C3.69354 7.13841 3.64275 7.06484 3.60781 6.98351C3.57287 6.90217 3.55448 6.81469 3.55371 6.72617C3.55294 6.63765 3.56981 6.54986 3.60333 6.46793C3.63685 6.386 3.68635 6.31157 3.74895 6.24897C3.81155 6.18638 3.88598 6.13688 3.96791 6.10336C4.04984 6.06983 4.13763 6.05297 4.22615 6.05374C4.31467 6.05451 4.40215 6.0729 4.48348 6.10784C4.56482 6.14277 4.63838 6.19356 4.69988 6.25724L7.99988 9.55724L11.2999 6.25724C11.4256 6.1358 11.594 6.0686 11.7688 6.07012C11.9436 6.07164 12.1108 6.14175 12.2344 6.26536C12.358 6.38896 12.4281 6.55617 12.4297 6.73097C12.4312 6.90577 12.364 7.07417 12.2425 7.1999L8.47121 10.9712Z" fill="white"/>
</g>
<defs>
<clipPath id="clip0_628_234">
<rect width="16" height="16" fill="white" transform="matrix(0 1 -1 0 16 0.5)"/>
</clipPath>
</defs>
</svg>
