<svg width="20" height="20" viewBox="0 0 20 20" fill="none" xmlns="http://www.w3.org/2000/svg">
<path d="M8.33268 5.00033H11.666C11.666 4.5583 11.4904 4.13437 11.1779 3.82181C10.8653 3.50925 10.4414 3.33366 9.99935 3.33366C9.55732 3.33366 9.1334 3.50925 8.82084 3.82181C8.50828 4.13437 8.33268 4.5583 8.33268 5.00033ZM6.66602 5.00033C6.66602 4.11627 7.0172 3.26842 7.64233 2.6433C8.26745 2.01818 9.11529 1.66699 9.99935 1.66699C10.8834 1.66699 11.7313 2.01818 12.3564 2.6433C12.9815 3.26842 13.3327 4.11627 13.3327 5.00033H17.4993C17.7204 5.00033 17.9323 5.08812 18.0886 5.2444C18.2449 5.40068 18.3327 5.61265 18.3327 5.83366C18.3327 6.05467 18.2449 6.26663 18.0886 6.42291C17.9323 6.57919 17.7204 6.66699 17.4993 6.66699H16.7643L16.026 15.2837C15.955 16.1157 15.5743 16.8908 14.9592 17.4556C14.3441 18.0204 13.5394 18.3338 12.7043 18.3337H7.29435C6.45927 18.3338 5.65458 18.0204 5.03947 17.4556C4.42437 16.8908 4.04366 16.1157 3.97268 15.2837L3.23435 6.66699H2.49935C2.27834 6.66699 2.06637 6.57919 1.91009 6.42291C1.75381 6.26663 1.66602 6.05467 1.66602 5.83366C1.66602 5.61265 1.75381 5.40068 1.91009 5.2444C2.06637 5.08812 2.27834 5.00033 2.49935 5.00033H6.66602ZM12.4993 10.0003C12.4993 9.77931 12.4116 9.56735 12.2553 9.41107C12.099 9.25479 11.887 9.16699 11.666 9.16699C11.445 9.16699 11.233 9.25479 11.0768 9.41107C10.9205 9.56735 10.8327 9.77931 10.8327 10.0003V13.3337C10.8327 13.5547 10.9205 13.7666 11.0768 13.9229C11.233 14.0792 11.445 14.167 11.666 14.167C11.887 14.167 12.099 14.0792 12.2553 13.9229C12.4116 13.7666 12.4993 13.5547 12.4993 13.3337V10.0003ZM8.33268 9.16699C8.5537 9.16699 8.76566 9.25479 8.92194 9.41107C9.07822 9.56735 9.16602 9.77931 9.16602 10.0003V13.3337C9.16602 13.5547 9.07822 13.7666 8.92194 13.9229C8.76566 14.0792 8.5537 14.167 8.33268 14.167C8.11167 14.167 7.89971 14.0792 7.74343 13.9229C7.58715 13.7666 7.49935 13.5547 7.49935 13.3337V10.0003C7.49935 9.77931 7.58715 9.56735 7.74343 9.41107C7.89971 9.25479 8.11167 9.16699 8.33268 9.16699ZM5.63268 15.142C5.66819 15.5582 5.85866 15.9458 6.16638 16.2283C6.47411 16.5107 6.87667 16.6673 7.29435 16.667H12.7043C13.1217 16.6668 13.5239 16.5101 13.8313 16.2277C14.1386 15.9453 14.3289 15.5579 14.3643 15.142L15.091 6.66699H4.90768L5.63268 15.142Z" fill="#C4C4C4"/>
</svg>
