<svg width="16" height="17" viewBox="0 0 16 17" fill="none" xmlns="http://www.w3.org/2000/svg">
<path d="M11.17 1.83301H4.83C4.05733 1.83301 3.67133 1.83301 3.35933 1.94167C3.06529 2.04616 2.79923 2.21692 2.58178 2.44073C2.36432 2.66454 2.2013 2.93541 2.10533 3.23234C2 3.55367 2 3.95101 2 4.74634V14.0823C2 14.6543 2.65667 14.9583 3.072 14.5783C3.18852 14.4707 3.34135 14.4109 3.5 14.4109C3.65865 14.4109 3.81148 14.4707 3.928 14.5783L4.25 14.873C4.45414 15.0618 4.72196 15.1666 5 15.1666C5.27804 15.1666 5.54586 15.0618 5.75 14.873C5.95414 14.6842 6.22196 14.5794 6.5 14.5794C6.77804 14.5794 7.04586 14.6842 7.25 14.873C7.45414 15.0618 7.72196 15.1666 8 15.1666C8.27804 15.1666 8.54586 15.0618 8.75 14.873C8.95414 14.6842 9.22196 14.5794 9.5 14.5794C9.77804 14.5794 10.0459 14.6842 10.25 14.873C10.4541 15.0618 10.722 15.1666 11 15.1666C11.278 15.1666 11.5459 15.0618 11.75 14.873L12.072 14.5783C12.1885 14.4707 12.3413 14.4109 12.5 14.4109C12.6587 14.4109 12.8115 14.4707 12.928 14.5783C13.3433 14.9583 14 14.6543 14 14.0823V4.74634C14 3.95101 14 3.55301 13.8947 3.23301C13.7988 2.93595 13.6358 2.66496 13.4183 2.44102C13.2009 2.21709 12.9348 2.04622 12.6407 1.94167C12.3287 1.83301 11.9427 1.83301 11.17 1.83301Z" stroke="white"/>
<path d="M7.00033 7.83333H11.3337M4.66699 7.83333H5.00033M4.66699 5.5H5.00033M4.66699 10.1667H5.00033M7.00033 5.5H11.3337M7.00033 10.1667H11.3337" stroke="white" stroke-linecap="round"/>
</svg>
