<svg width="32" height="32" viewBox="0 0 32 32" fill="none" xmlns="http://www.w3.org/2000/svg">
<path d="M27.902 13.32C19.0887 12.1093 11.4887 18.6533 11.9993 27.3333M8.66602 10.6667C8.66602 11.3739 8.94697 12.0522 9.44706 12.5523C9.94716 13.0524 10.6254 13.3333 11.3327 13.3333C12.0399 13.3333 12.7182 13.0524 13.2183 12.5523C13.7184 12.0522 13.9993 11.3739 13.9993 10.6667C13.9993 9.95942 13.7184 9.28115 13.2183 8.78105C12.7182 8.28095 12.0399 8 11.3327 8C10.6254 8 9.94716 8.28095 9.44706 8.78105C8.94697 9.28115 8.66602 9.95942 8.66602 10.6667Z" stroke="#C4C4C4" stroke-width="2" stroke-linecap="round" stroke-linejoin="round"/>
<path d="M4 17.4216C7.70667 16.9082 11.0333 18.6989 12.832 21.5549" stroke="#C4C4C4" stroke-width="2" stroke-linecap="round" stroke-linejoin="round"/>
<path d="M4 12.5333C4 9.54667 4 8.05333 4.58133 6.912C5.09265 5.90851 5.90851 5.09265 6.912 4.58133C8.05333 4 9.54667 4 12.5333 4H19.4667C22.4533 4 23.9467 4 25.088 4.58133C26.0915 5.09265 26.9073 5.90851 27.4187 6.912C28 8.05333 28 9.54667 28 12.5333V19.4667C28 22.4533 28 23.9467 27.4187 25.088C26.9073 26.0915 26.0915 26.9073 25.088 27.4187C23.9467 28 22.4533 28 19.4667 28H12.5333C9.54667 28 8.05333 28 6.912 27.4187C5.90851 26.9073 5.09265 26.0915 4.58133 25.088C4 23.9467 4 22.4533 4 19.4667V12.5333Z" stroke="#C4C4C4" stroke-width="2" stroke-linecap="round" stroke-linejoin="round"/>
</svg>
