<svg width="20" height="20" viewBox="0 0 20 20" fill="none" xmlns="http://www.w3.org/2000/svg">
<g clip-path="url(#clip0_782_256)">
<path d="M5.18677 5.177C6.60249 4.257 8.24534 3.57129 10.0011 3.57129C13.9868 3.57129 17.4011 7.107 18.9011 8.92272C19.1382 9.21843 19.2696 9.60272 19.2696 9.99986C19.2696 10.3984 19.1382 10.7813 18.9011 11.077C18.0739 12.077 16.6653 13.6013 14.9011 14.767M12.1439 16.0999C11.4553 16.3084 10.7382 16.4284 10.0011 16.4284C6.01534 16.4284 2.60106 12.8927 1.10106 11.077C0.859087 10.7704 0.729056 10.3904 0.732488 9.99986C0.732488 9.60272 0.863917 9.21843 1.10106 8.92272C1.57677 8.34843 2.24392 7.59986 3.06106 6.84557" stroke="#C4C4C4" stroke-width="1.4" stroke-linecap="round" stroke-linejoin="round"/>
<path d="M12.0206 12.0196C12.541 11.4807 12.829 10.759 12.8225 10.0099C12.816 9.26073 12.5155 8.54412 11.9858 8.01439C11.456 7.48465 10.7394 7.18417 9.99028 7.17766C9.24114 7.17115 8.51942 7.45913 7.98056 7.97958M19.2863 19.2853L0.714844 0.713867" stroke="#C4C4C4" stroke-width="1.4" stroke-linecap="round" stroke-linejoin="round"/>
</g>
<defs>
<clipPath id="clip0_782_256">
<rect width="20" height="20" fill="white"/>
</clipPath>
</defs>
</svg>
