<svg width="16" height="17" viewBox="0 0 16 17" fill="none" xmlns="http://www.w3.org/2000/svg">
<path d="M14 5.16634V4.74634C14 3.95101 14 3.55301 13.8947 3.23301C13.7988 2.93595 13.6358 2.66496 13.4183 2.44102C13.2009 2.21709 12.9348 2.04622 12.6407 1.94167C12.3287 1.83301 11.9427 1.83301 11.17 1.83301H4.83C4.05733 1.83301 3.67133 1.83301 3.35933 1.94167C3.06529 2.04616 2.79923 2.21692 2.58178 2.44073C2.36432 2.66454 2.2013 2.93541 2.10533 3.23234C2 3.55367 2 3.95101 2 4.74634V10.4997M14 7.83301V14.0823C14 14.6543 13.3433 14.9583 12.928 14.5783C12.8115 14.4707 12.6587 14.4109 12.5 14.4109C12.3413 14.4109 12.1885 14.4707 12.072 14.5783L11.75 14.873C11.5459 15.0618 11.278 15.1666 11 15.1666C10.722 15.1666 10.4541 15.0618 10.25 14.873C10.0459 14.6842 9.77804 14.5794 9.5 14.5794C9.22196 14.5794 8.95414 14.6842 8.75 14.873C8.54586 15.0618 8.27804 15.1666 8 15.1666C7.72196 15.1666 7.45414 15.0618 7.25 14.873C7.04586 14.6842 6.77804 14.5794 6.5 14.5794C6.22196 14.5794 5.95414 14.6842 5.75 14.873C5.54586 15.0618 5.27804 15.1666 5 15.1666C4.72196 15.1666 4.45414 15.0618 4.25 14.873L3.928 14.5783C3.81148 14.4707 3.65865 14.4109 3.5 14.4109C3.34135 14.4109 3.18852 14.4707 3.072 14.5783C2.65667 14.9583 2 14.6543 2 14.0823V13.1663" stroke="white" stroke-linecap="round"/>
<path d="M6.33301 7.43301L7.28567 8.49967L9.66634 5.83301" stroke="white" stroke-linecap="round" stroke-linejoin="round"/>
<path d="M5 10.833H6M11 10.833H8" stroke="white" stroke-linecap="round"/>
</svg>
