<svg width="16" height="16" viewBox="0 0 16 16" fill="none" xmlns="http://www.w3.org/2000/svg">
<g clip-path="url(#clip0_685_4904)">
<path d="M13.333 6.75167C13.333 4.19701 13.333 2.92034 12.5517 2.12634C11.7703 1.33234 10.5137 1.33301 7.99967 1.33301H6.66634C4.15234 1.33301 2.89501 1.33301 2.11434 2.12634C1.33367 2.91967 1.33301 4.19701 1.33301 6.75167C1.33301 9.30634 1.33301 10.583 2.11434 11.377C2.42767 11.695 2.81701 11.8857 3.33301 11.9997" stroke="white" stroke-linecap="round" stroke-linejoin="round"/>
<path d="M14.6663 11.666C14.6663 10.416 14.6663 9.79135 14.3483 9.35268C14.2456 9.21121 14.1211 9.0868 13.9797 8.98402C13.541 8.66602 12.9163 8.66602 11.6663 8.66602H8.33301C7.08301 8.66602 6.45834 8.66602 6.01967 8.98402C5.87821 9.0868 5.7538 9.21121 5.65101 9.35268C5.33301 9.79202 5.33301 10.4167 5.33301 11.666C5.33301 12.9153 5.33301 13.5407 5.65101 13.9793C5.754 14.1209 5.87864 14.2453 6.02034 14.348C6.45834 14.666 7.08301 14.666 8.33301 14.666H11.6663C12.9163 14.666 13.541 14.666 13.9797 14.348C14.1211 14.2452 14.2456 14.1208 14.3483 13.9793C14.6663 13.5407 14.6663 12.916 14.6663 11.666Z" stroke="white" stroke-linecap="round" stroke-linejoin="round"/>
<path d="M10.9993 10.6667L11.6127 11.1953C11.8707 11.4173 11.9993 11.5287 11.9993 11.6667C11.9993 11.8047 11.8707 11.916 11.6127 12.138L10.9993 12.6667M8.99935 10.6667L8.38602 11.1953C8.12802 11.4173 7.99935 11.5287 7.99935 11.6667C7.99935 11.8047 8.12802 11.916 8.38602 12.138L8.99935 12.6667M1.66602 4H12.9993" stroke="white" stroke-linecap="round" stroke-linejoin="round"/>
</g>
<defs>
<clipPath id="clip0_685_4904">
<rect width="16" height="16" fill="white"/>
</clipPath>
</defs>
</svg>
