<svg width="18" height="12" viewBox="0 0 18 12" fill="none" xmlns="http://www.w3.org/2000/svg">
<path d="M10.2499 4.33301L13.5833 7.66634M13.5833 4.33301L10.2499 7.66634M15.3291 11.4163H6.74825C6.31359 11.4163 5.89614 11.2464 5.58492 10.943L1.12658 6.59634C1.04696 6.5187 0.983675 6.42592 0.940467 6.32344C0.89726 6.22097 0.875 6.11088 0.875 5.99967C0.875 5.88846 0.89726 5.77838 0.940467 5.67591C0.983675 5.57343 1.04696 5.48064 1.12658 5.40301L5.58492 1.05634C5.89614 0.752902 6.31359 0.583051 6.74825 0.583008H15.3291C16.1207 0.583008 17.1816 1.03384 17.1816 1.93717V10.0622C17.1816 10.9655 16.1207 11.4163 15.3291 11.4163Z" stroke="#C4C4C4" stroke-linecap="round" stroke-linejoin="round"/>
</svg>
