<svg width="20" height="20" viewBox="0 0 20 20" fill="none" xmlns="http://www.w3.org/2000/svg">
<path d="M18.8991 8.92272C19.1362 9.21843 19.2677 9.60272 19.2677 9.99986C19.2677 10.3984 19.1362 10.7813 18.8991 11.077C17.3991 12.8927 13.9848 16.4284 9.99911 16.4284C6.01339 16.4284 2.59911 12.8927 1.09911 11.077C0.857134 10.7704 0.727102 10.3904 0.730535 9.99986C0.730535 9.60272 0.861964 9.21843 1.09911 8.92272C2.59911 7.107 6.01339 3.57129 9.99911 3.57129C13.9848 3.57129 17.3991 7.107 18.8991 8.92272Z" stroke="#C4C4C4" stroke-width="1.4" stroke-linecap="round" stroke-linejoin="round"/>
<path d="M9.99972 12.8569C10.7575 12.8569 11.4842 12.5558 12.02 12.02C12.5558 11.4842 12.8569 10.7575 12.8569 9.99972C12.8569 9.24196 12.5558 8.51523 12.02 7.97942C11.4842 7.4436 10.7575 7.14258 9.99972 7.14258C9.24196 7.14258 8.51523 7.4436 7.97942 7.97942C7.4436 8.51523 7.14258 9.24196 7.14258 9.99972C7.14258 10.7575 7.4436 11.4842 7.97942 12.02C8.51523 12.5558 9.24196 12.8569 9.99972 12.8569Z" stroke="#C4C4C4" stroke-width="1.4" stroke-linecap="round" stroke-linejoin="round"/>
</svg>
